<svg width="80" height="80" viewBox="0 0 80 80" fill="none" xmlns="http://www.w3.org/2000/svg">
<g filter="url(#filter0_d_40_3)">
<rect x="15" y="10" width="50" height="50" rx="6" fill="white" fill-opacity="0.16" shape-rendering="crispEdges"/>
<g clip-path="url(#clip0_40_3)">
<path fill-rule="evenodd" clip-rule="evenodd" d="M32 25.5C32 23.9087 32.6321 22.3826 33.7574 21.2574C34.8826 20.1321 36.4087 19.5 38 19.5H42C43.5913 19.5 45.1174 20.1321 46.2426 21.2574C47.3679 22.3826 48 23.9087 48 25.5V29.5C48 31.0913 47.3679 32.6174 46.2426 33.7426C45.1174 34.8679 43.5913 35.5 42 35.5H38C36.4087 35.5 34.8826 34.8679 33.7574 33.7426C32.6321 32.6174 32 31.0913 32 29.5V25.5ZM34 25.5C34 24.4391 34.4214 23.4217 35.1716 22.6716C35.9217 21.9214 36.9391 21.5 38 21.5H42C43.0609 21.5 44.0783 21.9214 44.8284 22.6716C45.5786 23.4217 46 24.4391 46 25.5V29.5C46 30.5609 45.5786 31.5783 44.8284 32.3284C44.0783 33.0786 43.0609 33.5 42 33.5H38C36.9391 33.5 35.9217 33.0786 35.1716 32.3284C34.4214 31.5783 34 30.5609 34 29.5V25.5ZM39.117 25.017C38.997 25.267 38.777 25.5 38.5 25.5H38C37.448 25.5 36.984 25.04 37.164 24.518C37.3966 23.848 37.859 23.2821 38.4691 22.9205C39.0792 22.559 39.7976 22.4252 40.497 22.5429C41.1963 22.6605 41.8314 23.0221 42.2896 23.5634C42.7478 24.1047 42.9995 24.7908 43 25.5C43 26.626 42.38 27.363 41.462 27.808C41.192 27.94 41 28.2 41 28.5C41 28.7652 40.8946 29.0196 40.7071 29.2071C40.5196 29.3946 40.2652 29.5 40 29.5C39.7348 29.5 39.4804 29.3946 39.2929 29.2071C39.1054 29.0196 39 28.7652 39 28.5V28C39 27.172 39.724 26.687 40.482 26.353C40.787 26.22 41 25.967 41 25.5C41 25.2348 40.8946 24.9804 40.7071 24.7929C40.5196 24.6054 40.2652 24.5 40 24.5C39.488 24.5 39.239 24.762 39.117 25.017ZM40 32.5C40.2652 32.5 40.5196 32.3946 40.7071 32.2071C40.8946 32.0196 41 31.7652 41 31.5C41 31.2348 40.8946 30.9804 40.7071 30.7929C40.5196 30.6054 40.2652 30.5 40 30.5C39.7348 30.5 39.4804 30.6054 39.2929 30.7929C39.1054 30.9804 39 31.2348 39 31.5C39 31.7652 39.1054 32.0196 39.2929 32.2071C39.4804 32.3946 39.7348 32.5 40 32.5Z" fill="white"/>
</g>
<path d="M33.9935 43.3647V44.6216H29.9115V43.3647H33.9935ZM30.3895 40.1797V48H28.7782V40.1797H30.3895ZM35.1429 40.1797V48H33.537V40.1797H35.1429ZM39.1229 48.1074C38.6718 48.1074 38.2671 48.0358 37.9091 47.8926C37.551 47.7458 37.2466 47.5435 36.996 47.2856C36.7489 47.0278 36.5591 46.7288 36.4266 46.3887C36.2941 46.0449 36.2279 45.6797 36.2279 45.293V45.0781C36.2279 44.6377 36.2906 44.2349 36.4159 43.8696C36.5412 43.5044 36.7203 43.1875 36.953 42.9189C37.1893 42.6504 37.4758 42.4445 37.8124 42.3013C38.149 42.1545 38.5285 42.0811 38.951 42.0811C39.3628 42.0811 39.7281 42.1491 40.0468 42.2852C40.3654 42.4212 40.6322 42.6146 40.847 42.8652C41.0655 43.1159 41.2302 43.4167 41.3412 43.7676C41.4522 44.1149 41.5077 44.5016 41.5077 44.9277V45.5723H36.8885V44.541H39.9877V44.4229C39.9877 44.208 39.9483 44.0164 39.8695 43.8481C39.7943 43.6763 39.6797 43.5402 39.5258 43.4399C39.3718 43.3397 39.1748 43.2896 38.9349 43.2896C38.7308 43.2896 38.5554 43.3343 38.4086 43.4238C38.2618 43.5133 38.1418 43.6387 38.0487 43.7998C37.9592 43.9609 37.8912 44.1507 37.8446 44.3691C37.8016 44.584 37.7802 44.8203 37.7802 45.0781V45.293C37.7802 45.5257 37.8124 45.7406 37.8768 45.9375C37.9449 46.1344 38.0398 46.3045 38.1615 46.4478C38.2868 46.591 38.4372 46.702 38.6127 46.7808C38.7917 46.8595 38.994 46.8989 39.2196 46.8989C39.4989 46.8989 39.7585 46.8452 39.9984 46.7378C40.2419 46.6268 40.4514 46.4603 40.6268 46.2383L41.3788 47.0547C41.257 47.2301 41.0905 47.3984 40.8793 47.5596C40.6716 47.7207 40.4209 47.8532 40.1273 47.957C39.8337 48.0573 39.4989 48.1074 39.1229 48.1074ZM44.0214 39.75V48H42.4691V39.75H44.0214ZM46.8466 43.3057V50.2344H45.2997V42.1885H46.7338L46.8466 43.3057ZM50.5258 45.0298V45.1426C50.5258 45.5651 50.4756 45.9572 50.3754 46.3188C50.2787 46.6805 50.1355 46.9956 49.9457 47.2642C49.7559 47.5291 49.5196 47.7368 49.2367 47.8872C48.9574 48.034 48.6351 48.1074 48.2699 48.1074C47.9154 48.1074 47.6075 48.0358 47.3461 47.8926C47.0847 47.7493 46.8645 47.5488 46.6854 47.291C46.51 47.0296 46.3685 46.7271 46.2611 46.3833C46.1537 46.0396 46.0713 45.6707 46.014 45.2769V44.9814C46.0713 44.5589 46.1537 44.1722 46.2611 43.8213C46.3685 43.4668 46.51 43.1606 46.6854 42.9028C46.8645 42.6414 47.0829 42.4391 47.3407 42.2959C47.6021 42.1527 47.9082 42.0811 48.2592 42.0811C48.628 42.0811 48.952 42.1509 49.2313 42.2905C49.5142 42.4302 49.7505 42.6307 49.9403 42.8921C50.1337 43.1535 50.2787 43.465 50.3754 43.8267C50.4756 44.1883 50.5258 44.5894 50.5258 45.0298ZM48.9735 45.1426V45.0298C48.9735 44.7827 48.952 44.5553 48.9091 44.3477C48.8697 44.1364 48.8052 43.952 48.7157 43.7944C48.6298 43.6369 48.5152 43.5151 48.3719 43.4292C48.2323 43.3397 48.0622 43.2949 47.8617 43.2949C47.6504 43.2949 47.4696 43.3289 47.3192 43.397C47.1724 43.465 47.0524 43.5635 46.9594 43.6924C46.8663 43.8213 46.7964 43.9753 46.7499 44.1543C46.7033 44.3333 46.6747 44.5356 46.6639 44.7612V45.5078C46.6818 45.7728 46.732 46.0109 46.8143 46.2222C46.8967 46.4299 47.0238 46.5946 47.1957 46.7163C47.3676 46.8381 47.5931 46.8989 47.8724 46.8989C48.0765 46.8989 48.2484 46.8542 48.3881 46.7646C48.5277 46.6715 48.6405 46.5444 48.7264 46.3833C48.816 46.2222 48.8786 46.036 48.9144 45.8247C48.9538 45.6134 48.9735 45.3861 48.9735 45.1426Z" fill="white"/>
</g>
<defs>
<filter id="filter0_d_40_3" x="0" y="0" width="80" height="80" filterUnits="userSpaceOnUse" color-interpolation-filters="sRGB">
<feFlood flood-opacity="0" result="BackgroundImageFix"/>
<feColorMatrix in="SourceAlpha" type="matrix" values="0 0 0 0 0 0 0 0 0 0 0 0 0 0 0 0 0 0 127 0" result="hardAlpha"/>
<feOffset dy="5"/>
<feGaussianBlur stdDeviation="7.5"/>
<feComposite in2="hardAlpha" operator="out"/>
<feColorMatrix type="matrix" values="0 0 0 0 0.0627451 0 0 0 0 0.117647 0 0 0 0 0.211765 0 0 0 0.15 0"/>
<feBlend mode="normal" in2="BackgroundImageFix" result="effect1_dropShadow_40_3"/>
<feBlend mode="normal" in="SourceGraphic" in2="effect1_dropShadow_40_3" result="shape"/>
</filter>
<clipPath id="clip0_40_3">
<rect width="16" height="16" fill="white" transform="translate(32 19.5)"/>
</clipPath>
</defs>
</svg>
