<svg width="24" height="24" viewBox="0 0 24 24" fill="none" xmlns="http://www.w3.org/2000/svg">
<g clip-path="url(#clip0_4_346)">
<g clip-path="url(#clip1_4_346)">
<path fill-rule="evenodd" clip-rule="evenodd" d="M12.001 2.72403C11.432 2.72403 10.973 2.26403 10.973 1.69503V1.03003C10.973 0.894961 10.9996 0.761219 11.0513 0.636436C11.103 0.511653 11.1787 0.398272 11.2742 0.302767C11.3697 0.207262 11.4831 0.131503 11.6079 0.0798158C11.7327 0.0281288 11.8664 0.00152588 12.0015 0.00152588C12.1365 0.00152588 12.2703 0.0281288 12.3951 0.0798158C12.5198 0.131503 12.6332 0.207262 12.7287 0.302767C12.8242 0.398272 12.9 0.511653 12.9517 0.636436C13.0034 0.761219 13.03 0.894961 13.03 1.03003V1.69603C13.03 2.26503 12.569 2.72403 12.001 2.72403ZM1.69498 11.885H1.02998C0.757069 11.885 0.495339 11.7766 0.302364 11.5836C0.109389 11.3907 0.000976563 11.1289 0.000976562 10.856C0.000976563 10.5831 0.109389 10.3214 0.302364 10.1284C0.495339 9.93544 0.757069 9.82703 1.02998 9.82703H1.69598C1.96888 9.82703 2.23061 9.93544 2.42359 10.1284C2.61656 10.3214 2.72498 10.5831 2.72498 10.856C2.72498 11.1289 2.61656 11.3907 2.42359 11.5836C2.23061 11.7766 1.96788 11.885 1.69498 11.885ZM16.68 4.41003L16.423 4.34103C16.3644 4.30743 16.313 4.26262 16.2717 4.20915C16.2305 4.15568 16.2001 4.0946 16.1825 4.0294C16.1648 3.96421 16.1602 3.89617 16.1689 3.82919C16.1775 3.76221 16.1993 3.69759 16.233 3.63903L16.534 3.11503C16.6044 3.00125 16.7163 2.91933 16.846 2.88662C16.9758 2.85391 17.1131 2.87298 17.2291 2.93978C17.345 3.00658 17.4304 3.11587 17.4671 3.24452C17.5039 3.37316 17.4891 3.51107 17.426 3.62903L17.125 4.15203C17.0799 4.23048 17.015 4.29565 16.9366 4.34095C16.8583 4.38625 16.7704 4.41008 16.68 4.41003ZM3.89798 6.69003L3.64298 6.62303L3.11698 6.32203C3.05834 6.28854 3.00688 6.24383 2.96552 6.19045C2.92416 6.13708 2.89372 6.07608 2.87594 6.01094C2.85816 5.9458 2.85338 5.87779 2.86188 5.8108C2.87038 5.74382 2.89199 5.67916 2.92548 5.62053C2.95896 5.56189 3.00367 5.51043 3.05705 5.46907C3.11043 5.42771 3.17143 5.39727 3.23657 5.37949C3.30171 5.36171 3.36971 5.35693 3.4367 5.36543C3.50368 5.37393 3.56834 5.39554 3.62698 5.42903L4.15298 5.73003C4.25125 5.78632 4.32818 5.8735 4.37181 5.97801C4.41544 6.08253 4.42333 6.19852 4.39425 6.30798C4.36518 6.41744 4.30076 6.51423 4.21102 6.58332C4.12128 6.6524 4.01123 6.68992 3.89798 6.69003ZM7.32298 4.41003C7.23236 4.41015 7.14331 4.38636 7.06483 4.34106C6.98634 4.29576 6.9212 4.23056 6.87598 4.15203L6.57498 3.62903C6.51576 3.51126 6.50386 3.37529 6.54171 3.24902C6.57957 3.12275 6.66432 3.01576 6.77857 2.95001C6.89281 2.88425 7.0279 2.86471 7.15609 2.89539C7.28429 2.92608 7.39589 3.00466 7.46798 3.11503L7.76798 3.63903C7.80163 3.69759 7.82341 3.76221 7.83207 3.82919C7.84073 3.89617 7.83611 3.96421 7.81847 4.0294C7.80082 4.0946 7.7705 4.15568 7.72923 4.20915C7.68797 4.26262 7.63657 4.30743 7.57798 4.34103L7.32298 4.41003ZM20.106 7.83403C19.9921 7.83521 19.8811 7.79848 19.7904 7.72963C19.6997 7.66077 19.6345 7.56371 19.6051 7.45372C19.5756 7.34373 19.5836 7.22707 19.6278 7.12212C19.6719 7.01716 19.7498 6.92988 19.849 6.87403L20.37 6.57303C20.4285 6.53754 20.4935 6.51409 20.5612 6.50406C20.6289 6.49402 20.6979 6.49761 20.7642 6.5146C20.8305 6.53159 20.8927 6.56164 20.9472 6.603C21.0017 6.64436 21.0474 6.69619 21.0816 6.75544C21.1159 6.8147 21.1379 6.88019 21.1465 6.94808C21.1551 7.01597 21.15 7.08489 21.1316 7.1508C21.1132 7.2167 21.0818 7.27827 21.0393 7.33188C20.9968 7.3855 20.944 7.43008 20.884 7.46303L20.363 7.76503L20.106 7.83403Z" fill="#7C828D"/>
<path fill-rule="evenodd" clip-rule="evenodd" d="M12.003 2.057C6.519 2.057 2.058 6.517 2.058 12C2.058 17.482 6.519 21.942 12.003 21.942C17.484 21.942 21.943 17.482 21.943 12C21.943 6.517 17.484 2.057 12.003 2.057ZM12.002 24C5.384 24 0 18.616 0 12C0 5.384 5.384 0 12.002 0C18.616 0 23.999 5.383 23.999 12C23.999 18.616 18.616 24 12.002 24Z" fill="#7C828D"/>
<path fill-rule="evenodd" clip-rule="evenodd" d="M12.0031 13.028C11.4341 13.028 10.9751 12.568 10.9751 12V4.57702C10.9751 4.30425 11.0834 4.04264 11.2763 3.84976C11.4692 3.65688 11.7308 3.54852 12.0036 3.54852C12.2763 3.54852 12.538 3.65688 12.7308 3.84976C12.9237 4.04264 13.0321 4.30425 13.0321 4.57702V12C13.0321 12.569 12.5711 13.028 12.0031 13.028ZM12.0031 24C11.4341 24 10.9751 23.54 10.9751 22.97V22.304C10.9751 22.0312 11.0834 21.7696 11.2763 21.5768C11.4692 21.3839 11.7308 21.2755 12.0036 21.2755C12.2763 21.2755 12.538 21.3839 12.7308 21.5768C12.9237 21.7696 13.0321 22.0312 13.0321 22.304V22.971C13.0321 23.54 12.5711 24 12.0031 24ZM22.9711 13.027H22.3041C22.0368 13.0187 21.7834 12.9067 21.5973 12.7147C21.4112 12.5227 21.3071 12.2659 21.3071 11.9985C21.3071 11.7312 21.4112 11.4743 21.5973 11.2823C21.7834 11.0904 22.0368 10.9784 22.3041 10.97H22.9721C23.2448 10.97 23.5065 11.0784 23.6993 11.2713C23.8922 11.4641 24.0006 11.7257 24.0006 11.9985C24.0006 12.2713 23.8922 12.5329 23.6993 12.7258C23.5065 12.9187 23.2438 13.027 22.9711 13.027ZM7.01807 21.143L6.76207 21.075C6.64387 21.0068 6.55751 20.8945 6.5219 20.7628C6.48629 20.631 6.50433 20.4905 6.57207 20.372L6.87307 19.848C6.94415 19.7363 7.05552 19.6563 7.18406 19.6245C7.31261 19.5927 7.44844 19.6117 7.56337 19.6775C7.67829 19.7432 7.76347 19.8507 7.80122 19.9777C7.83896 20.1046 7.82638 20.2411 7.76607 20.359L7.46507 20.885C7.41985 20.9636 7.35471 21.0288 7.27623 21.0741C7.19774 21.1194 7.10869 21.1431 7.01807 21.143ZM20.6271 17.493L20.3711 17.425L19.8501 17.125C19.7915 17.0914 19.7401 17.0466 19.6989 16.9931C19.6576 16.9396 19.6273 16.8786 19.6097 16.8134C19.592 16.7482 19.5874 16.6802 19.5961 16.6132C19.6047 16.5462 19.6265 16.4816 19.6601 16.423C19.6937 16.3645 19.7385 16.3131 19.792 16.2718C19.8455 16.2306 19.9065 16.2003 19.9717 16.1826C20.0369 16.165 20.1049 16.1604 20.1719 16.169C20.2389 16.1777 20.3035 16.1994 20.3621 16.233L20.8831 16.533C20.9822 16.5888 21.06 16.676 21.1042 16.7809C21.1483 16.8857 21.1564 17.0023 21.1271 17.1122C21.0978 17.2222 21.0327 17.3192 20.9422 17.3882C20.8517 17.4571 20.7408 17.494 20.6271 17.493ZM16.9851 21.143C16.8949 21.143 16.8063 21.1192 16.7282 21.0741C16.65 21.029 16.5852 20.9641 16.5401 20.886L16.2351 20.362C16.2011 20.3036 16.179 20.239 16.17 20.1721C16.161 20.1051 16.1653 20.037 16.1826 19.9716C16.1999 19.9063 16.23 19.845 16.271 19.7913C16.312 19.7376 16.3631 19.6925 16.4216 19.6585C16.48 19.6246 16.5446 19.6025 16.6115 19.5935C16.6785 19.5845 16.7466 19.5888 16.8119 19.6061C16.8773 19.6234 16.9385 19.6534 16.9923 19.6944C17.046 19.7354 17.0911 19.7866 17.1251 19.845L17.4301 20.37C17.5731 20.615 17.4901 20.93 17.2431 21.073L16.9851 21.143ZM3.37407 16.35C3.26132 16.3489 3.15206 16.3108 3.06305 16.2415C2.97405 16.1723 2.91023 16.0758 2.88139 15.9668C2.85255 15.8578 2.86028 15.7423 2.9034 15.6381C2.94651 15.5339 3.02264 15.4468 3.12007 15.39L3.64607 15.09C3.70483 15.0538 3.77027 15.0299 3.83849 15.0195C3.90671 15.0092 3.97631 15.0127 4.04315 15.0298C4.10999 15.0469 4.1727 15.0773 4.22754 15.1192C4.28237 15.1611 4.32822 15.2136 4.36234 15.2736C4.39645 15.3335 4.41815 15.3998 4.42612 15.4683C4.4341 15.5368 4.42819 15.6063 4.40876 15.6725C4.38932 15.7387 4.35676 15.8003 4.313 15.8537C4.26924 15.907 4.21519 15.951 4.15407 15.983L3.62807 16.283L3.37407 16.35Z" fill="#7C828D"/>
<path fill-rule="evenodd" clip-rule="evenodd" d="M8.89307 16.134C8.68995 16.1333 8.49157 16.0725 8.32288 15.9594C8.15419 15.8462 8.02274 15.6857 7.94503 15.498C7.86733 15.3103 7.84686 15.1039 7.88619 14.9046C7.92552 14.7053 8.0229 14.5221 8.16607 14.378L11.1521 11.395C11.2475 11.2995 11.3609 11.2237 11.4857 11.1719C11.6104 11.1202 11.7442 11.0936 11.8792 11.0935C12.0143 11.0935 12.148 11.12 12.2728 11.1717C12.3976 11.2233 12.511 11.299 12.6066 11.3945C12.7021 11.49 12.7779 11.6033 12.8296 11.7281C12.8814 11.8528 12.908 11.9866 12.9081 12.1216C12.9081 12.2567 12.8815 12.3905 12.8299 12.5153C12.7783 12.64 12.7025 12.7535 12.6071 12.849L9.62007 15.833C9.52474 15.9289 9.41129 16.0049 9.2863 16.0566C9.16132 16.1083 9.02831 16.1346 8.89307 16.134Z" fill="#7C828D"/>
</g>
</g>
<defs>
<clipPath id="clip0_4_346">
<rect width="24" height="24" fill="white"/>
</clipPath>
<clipPath id="clip1_4_346">
<rect width="24" height="24" fill="white"/>
</clipPath>
</defs>
</svg>
